<?xml version="1.0" encoding="UTF-8"?><svg id="Layer_1" xmlns="http://www.w3.org/2000/svg" viewBox="0 0 382.72 186.05"><defs><style>.cls-1{fill:#061e3e;}.cls-2{stroke-width:1.36px;}.cls-2,.cls-3,.cls-4,.cls-5,.cls-6{stroke:#fbfaf5;stroke-miterlimit:10;}.cls-2,.cls-3,.cls-5{stroke-linecap:round;}.cls-2,.cls-3,.cls-5,.cls-6{fill:none;}.cls-3,.cls-6{stroke-width:2.13px;}.cls-4{fill:#fbfaf5;}.cls-5{stroke-width:2.03px;}</style></defs><rect class="cls-1" x="52.74" width="329.97" height="162" rx="8.27" ry="8.27"/><g><g><g><path class="cls-4" d="M139.26,30.25h8.7c7.36,0,12,5.2,12,11.46s-4.64,11.46-12,11.46h-8.7V30.25Zm8.53,20.45c5.52,0,9.24-3.82,9.24-8.99s-3.72-8.99-9.24-8.99h-5.7v17.98h5.7Z"/><path class="cls-4" d="M179.46,30.18h2.55l10.76,23h-2.87l-2.12-4.46h-14.05l-2.12,4.46h-2.9l10.76-23Zm7.29,16.24l-4.21-8.92c-.78-1.66-1.66-3.86-1.8-4.14-.14,.28-.99,2.44-1.8,4.14l-4.21,8.92h12.03Z"/><path class="cls-4" d="M203,30.25h2.83l11.43,14.9c1.17,1.56,2.44,3.72,2.44,3.72V30.25h2.83v22.93h-2.9l-11.22-14.54c-1.38-1.8-2.58-3.96-2.58-3.96v18.51h-2.83V30.25Z"/><path class="cls-4" d="M139.26,63.47h2.51l5.59,7.78c1.2,1.7,3.72,5.31,3.72,5.31,0,0,2.51-3.57,3.72-5.27l5.59-7.82h2.51v22.93h-2.83v-18.15s-.6,1.1-1.7,2.62l-7.29,10.26-7.32-10.33c-1.03-1.45-1.66-2.55-1.66-2.55v18.15h-2.83v-22.93Z"/><path class="cls-4" d="M175.32,63.47h2.83v22.93h-2.83v-22.93Z"/><path class="cls-4" d="M190.61,63.47h2.83v20.45h14.47v2.48h-17.3v-22.93Z"/><path class="cls-4" d="M219.06,63.47h2.83v20.45h14.47v2.48h-17.3v-22.93Z"/><path class="cls-4" d="M247.51,63.47h17.34v2.48h-14.51v6.97h13.59v2.44h-13.59v8.56h15.04v2.48h-17.87v-22.93Z"/><path class="cls-4" d="M276.32,63.47h9.41c6.37,0,9.84,3.86,9.84,8.63,0,3.29-1.91,6.26-5.27,7.61l5.45,6.69h-3.36l-4.67-5.91c-.6,.11-1.45,.18-2.23,.18h-6.33v5.73h-2.83v-22.93Zm9.62,14.76c3.89,0,6.65-2.76,6.65-6.12s-2.72-6.19-6.62-6.19h-6.83v12.31h6.79Z"/></g><g><path class="cls-4" d="M138.99,104.58c0-5.06,3.94-9.09,9.2-9.09,2.37,0,4.46,.82,6.12,2.29l-1.31,1.5c-1.33-1.2-2.91-1.8-4.82-1.8-3.94,0-6.94,3.18-6.94,7.1s2.99,7.1,6.94,7.1c2.29,0,4.27-1.12,5.5-2.78v-3.7h-3.84v-1.85h5.96v6.34c-1.63,2.45-4.41,3.97-7.62,3.97-5.25,0-9.2-4.03-9.2-9.09Z"/><path class="cls-4" d="M171.74,95.71h1.96l8.27,17.68h-2.2l-1.63-3.43h-10.8l-1.63,3.43h-2.23l8.27-17.68Zm5.6,12.49l-3.24-6.86c-.6-1.28-1.28-2.97-1.39-3.18-.11,.22-.76,1.88-1.39,3.18l-3.24,6.86h9.25Z"/><path class="cls-4" d="M189.82,95.77h7.24c4.9,0,7.56,2.97,7.56,6.64,0,2.53-1.47,4.82-4.05,5.85l4.19,5.14h-2.58l-3.59-4.54c-.46,.08-1.12,.14-1.71,.14h-4.87v4.41h-2.18v-17.63Zm7.4,11.35c2.99,0,5.11-2.12,5.11-4.71s-2.09-4.76-5.09-4.76h-5.25v9.47h5.22Z"/><path class="cls-4" d="M213.3,95.77h6.69c5.66,0,9.22,4,9.22,8.81s-3.56,8.81-9.22,8.81h-6.69v-17.63Zm6.56,15.73c4.24,0,7.1-2.94,7.1-6.91s-2.86-6.91-7.1-6.91h-4.38v13.82h4.38Z"/><path class="cls-4" d="M238.05,95.77h13.33v1.9h-11.15v5.36h10.45v1.88h-10.45v6.58h11.56v1.9h-13.74v-17.63Z"/><path class="cls-4" d="M260.19,95.77h2.18l8.79,11.45c.9,1.2,1.88,2.86,1.88,2.86v-14.31h2.18v17.63h-2.23l-8.62-11.18c-1.06-1.39-1.99-3.05-1.99-3.05v14.23h-2.18v-17.63Z"/><path class="cls-4" d="M284.02,110.92l.93-1.63c1.41,1.39,3.32,2.39,5.99,2.39,2.29,0,4.68-1.01,4.68-3.18,0-2.01-2.29-2.61-4.54-3.18-3.16-.79-6.31-1.8-6.31-5.06s3.02-4.76,6.18-4.76c2.18,0,4.16,.54,5.93,1.96l-.9,1.66c-1.58-1.22-3.35-1.63-5.03-1.63s-3.97,.82-3.97,2.77c0,1.82,2.01,2.42,4.38,3.02,3.26,.82,6.56,1.93,6.56,5.22,0,3.62-3.62,5.17-6.99,5.17s-5.6-1.39-6.88-2.75Z"/></g></g><g><polyline class="cls-3" points="104.61 127.03 104.63 118.21 104.63 87.44"/><path class="cls-6" d="M104.5,28.25s-44.62,85.69,.13,85.89c44.75,.2-.13-85.89-.13-85.89Z"/></g><g><polyline class="cls-2" points="94.54 151.02 228.18 140.14 378.72 148.27"/><line class="cls-2" x1="81.77" y1="127.92" x2="333.28" y2="122.51"/><polyline class="cls-5" points="56.96 144.13 216.44 132.08 350.02 136.56"/></g></g></svg>