<?xml version="1.0" encoding="UTF-8"?><svg id="Layer_1" xmlns="http://www.w3.org/2000/svg" viewBox="0 0 329.97 188.2"><defs><style>.cls-1{fill:#e5e3d6;}.cls-2{fill:#061e3e;}.cls-3{stroke:#e5e3d6;stroke-width:1.36px;}.cls-3,.cls-4,.cls-5{stroke-linecap:round;}.cls-3,.cls-4,.cls-5,.cls-6{fill:none;stroke-miterlimit:10;}.cls-4,.cls-5,.cls-6{stroke:#69734b;}.cls-4,.cls-6{stroke-width:2.14px;}.cls-5{stroke-width:2.04px;}</style></defs><rect class="cls-2" width="329.97" height="162" rx="8.27" ry="8.27"/><g><g><g><path class="cls-1" d="M85.57,30.47h8.44c7.13,0,11.62,5.04,11.62,11.11s-4.49,11.11-11.62,11.11h-8.44V30.47Zm8.26,19.82c5.35,0,8.95-3.7,8.95-8.71s-3.6-8.71-8.95-8.71h-5.52v17.42h5.52Z"/><path class="cls-1" d="M124.52,30.41h2.47l10.42,22.29h-2.78l-2.06-4.32h-13.61l-2.06,4.32h-2.81l10.42-22.29Zm7.06,15.74l-4.08-8.64c-.75-1.61-1.61-3.74-1.75-4.01-.14,.27-.96,2.37-1.75,4.01l-4.08,8.64h11.66Z"/><path class="cls-1" d="M147.32,30.47h2.74l11.08,14.44c1.13,1.51,2.37,3.6,2.37,3.6V30.47h2.74v22.22h-2.81l-10.87-14.09c-1.34-1.75-2.5-3.84-2.5-3.84v17.93h-2.74V30.47Z"/><path class="cls-1" d="M85.57,65.21h2.43l5.42,7.54c1.17,1.65,3.6,5.14,3.6,5.14,0,0,2.43-3.46,3.6-5.11l5.42-7.58h2.43v22.22h-2.74v-17.59s-.58,1.06-1.65,2.54l-7.06,9.94-7.1-10.01c-.99-1.41-1.61-2.47-1.61-2.47v17.59h-2.74v-22.22Z"/><path class="cls-1" d="M120.51,65.21h2.74v22.22h-2.74v-22.22Z"/><path class="cls-1" d="M135.32,65.21h2.74v19.82h14.02v2.4h-16.77v-22.22Z"/><path class="cls-1" d="M162.88,65.21h2.74v19.82h14.02v2.4h-16.77v-22.22Z"/><path class="cls-1" d="M190.45,65.21h16.8v2.4h-14.06v6.76h13.17v2.37h-13.17v8.3h14.57v2.4h-17.32v-22.22Z"/><path class="cls-1" d="M218.36,65.21h9.12c6.17,0,9.53,3.74,9.53,8.37,0,3.19-1.85,6.07-5.11,7.37l5.28,6.48h-3.26l-4.53-5.73c-.58,.1-1.41,.17-2.16,.17h-6.14v5.55h-2.74v-22.22Zm9.33,14.3c3.77,0,6.45-2.67,6.45-5.93s-2.64-6-6.41-6h-6.62v11.93h6.58Z"/></g><g><path class="cls-1" d="M84.26,106.16c0-4.92,3.84-8.84,8.95-8.84,2.3,0,4.34,.79,5.96,2.22l-1.27,1.46c-1.3-1.16-2.83-1.75-4.69-1.75-3.84,0-6.75,3.1-6.75,6.91s2.91,6.91,6.75,6.91c2.22,0,4.16-1.09,5.35-2.7v-3.6h-3.73v-1.8h5.8v6.17c-1.59,2.38-4.29,3.87-7.41,3.87-5.11,0-8.95-3.92-8.95-8.84Z"/><path class="cls-1" d="M116.14,97.53h1.91l8.05,17.21h-2.14l-1.59-3.34h-10.51l-1.59,3.34h-2.17l8.05-17.21Zm5.45,12.15l-3.15-6.67c-.58-1.24-1.24-2.89-1.35-3.1-.11,.21-.74,1.83-1.35,3.1l-3.15,6.67h9Z"/><path class="cls-1" d="M133.74,97.58h7.04c4.76,0,7.36,2.89,7.36,6.46,0,2.46-1.43,4.69-3.94,5.69l4.08,5h-2.51l-3.49-4.42c-.45,.08-1.09,.13-1.67,.13h-4.74v4.29h-2.12v-17.15Zm7.2,11.04c2.91,0,4.98-2.07,4.98-4.58s-2.04-4.63-4.95-4.63h-5.11v9.21h5.08Z"/><path class="cls-1" d="M156.59,97.58h6.51c5.51,0,8.97,3.89,8.97,8.58s-3.47,8.58-8.97,8.58h-6.51v-17.15Zm6.38,15.3c4.13,0,6.91-2.86,6.91-6.72s-2.78-6.72-6.91-6.72h-4.26v13.45h4.26Z"/><path class="cls-1" d="M180.68,97.58h12.97v1.85h-10.85v5.22h10.17v1.83h-10.17v6.41h11.25v1.85h-13.37v-17.15Z"/><path class="cls-1" d="M202.23,97.58h2.12l8.55,11.14c.87,1.16,1.83,2.78,1.83,2.78v-13.92h2.12v17.15h-2.17l-8.39-10.88c-1.03-1.35-1.93-2.96-1.93-2.96v13.84h-2.12v-17.15Z"/><path class="cls-1" d="M225.42,112.33l.9-1.59c1.38,1.35,3.23,2.33,5.82,2.33,2.22,0,4.55-.98,4.55-3.1,0-1.96-2.22-2.54-4.42-3.1-3.07-.77-6.14-1.75-6.14-4.92s2.94-4.63,6.01-4.63c2.12,0,4.05,.53,5.77,1.91l-.87,1.61c-1.54-1.19-3.26-1.59-4.9-1.59s-3.86,.79-3.86,2.7c0,1.77,1.96,2.36,4.26,2.94,3.18,.79,6.38,1.88,6.38,5.08,0,3.52-3.52,5.03-6.8,5.03s-5.45-1.35-6.7-2.67Z"/></g></g><g><polyline class="cls-4" points="49.74 126.22 49.76 117.36 49.76 86.46"/><path class="cls-6" d="M49.63,27.03s-44.8,86.04,.13,86.24c44.93,.2-.13-86.24-.13-86.24Z"/></g><polyline class="cls-3" points="39.63 150.3 173.82 139.37 324.97 147.54"/><line class="cls-3" x1="26.81" y1="127.1" x2="279.35" y2="121.67"/><polyline class="cls-5" points="1.89 143.38 162.03 131.29 296.16 135.79"/></g></svg>